<svg width="181" height="180" viewBox="0 0 181 180" fill="none" xmlns="http://www.w3.org/2000/svg">
<path d="M90.4998 161.25C80.8278 161.25 71.4448 159.366 62.612 155.65C58.3669 153.865 54.2721 151.654 50.4421 149.081C46.6484 146.532 43.0809 143.605 39.8385 140.381C36.5962 137.157 33.6532 133.609 31.0902 129.836C28.5025 126.027 26.2798 121.955 24.4843 117.733C20.7485 108.949 18.854 99.6182 18.854 89.9996C18.854 80.381 20.7485 71.0498 24.4843 62.2658C26.2798 58.0442 28.5025 53.972 31.0902 50.1632C33.6532 46.3904 36.5968 42.8426 39.8385 39.6182C43.0809 36.3938 46.6484 33.467 50.4421 30.9182C54.2721 28.3448 58.3669 26.1344 62.612 24.3488C71.4448 20.6336 80.8278 18.7496 90.4998 18.7496C100.172 18.7496 109.555 20.6336 118.388 24.3488C122.633 26.1344 126.728 28.3448 130.558 30.9182C134.351 33.467 137.919 36.3944 141.161 39.6182C144.403 42.8426 147.346 46.3904 149.909 50.1632C152.497 53.972 154.72 58.0442 156.515 62.2658C160.251 71.0498 162.146 80.381 162.146 89.9996C162.146 99.6182 160.251 108.949 156.515 117.733C154.72 121.955 152.497 126.027 149.909 129.836C147.346 133.609 144.403 137.157 141.161 140.381C137.919 143.605 134.351 146.532 130.558 149.081C126.728 151.654 122.633 153.865 118.388 155.65C109.555 159.366 100.172 161.25 90.4998 161.25Z" fill="#A9B8FF"/>
<path d="M90.5002 18.78C95.3595 18.78 100.215 19.2666 104.933 20.2272C109.531 21.1632 114.054 22.5594 118.376 24.3768C122.619 26.1618 126.712 28.371 130.541 30.9432C134.333 33.4908 137.899 36.417 141.14 39.6396C144.38 42.8622 147.323 46.4088 149.885 50.1798C152.471 53.9874 154.692 58.0572 156.487 62.2776C158.315 66.5754 159.719 71.0736 160.66 75.6462C161.625 80.3382 162.115 85.1676 162.115 89.9994C162.115 94.8312 161.626 99.6606 160.66 104.353C159.719 108.925 158.315 113.423 156.487 117.721C154.692 121.941 152.471 126.011 149.885 129.819C147.323 133.59 144.38 137.137 141.14 140.359C137.899 143.582 134.333 146.508 130.541 149.056C126.712 151.628 122.62 153.837 118.376 155.622C114.054 157.44 109.531 158.836 104.933 159.772C100.215 160.732 95.3589 161.219 90.5002 161.219C85.6416 161.219 80.7853 160.732 76.0673 159.772C71.4693 158.836 66.9461 157.439 62.6244 155.622C58.3812 153.837 54.2882 151.628 50.4594 149.056C46.6674 146.508 43.1011 143.582 39.8606 140.359C36.6201 137.137 33.6777 133.59 31.1159 129.819C28.5294 126.011 26.308 121.942 24.513 117.721C22.6849 113.423 21.281 108.925 20.3404 104.353C19.3751 99.6606 18.8852 94.8312 18.8852 89.9994C18.8852 85.1676 19.3745 80.3382 20.3404 75.6462C21.2816 71.0736 22.6856 66.5754 24.513 62.2776C26.308 58.0578 28.5294 53.9874 31.1159 50.1798C33.6777 46.4088 36.6201 42.8622 39.8606 39.6396C43.1011 36.417 46.6674 33.4908 50.4594 30.9432C54.2882 28.371 58.3806 26.1618 62.6244 24.3768C66.9461 22.5588 71.4693 21.1626 76.0673 20.2272C80.7853 19.2666 85.641 18.78 90.5002 18.78ZM90.5002 18.72C50.9149 18.72 18.8242 50.6334 18.8242 90C18.8242 129.367 50.9149 161.28 90.5002 161.28C130.086 161.28 162.176 129.367 162.176 90C162.176 50.6334 130.086 18.72 90.5002 18.72Z" fill="black"/>
<path d="M18.5776 126.319C23.4248 123.36 28.272 120.402 33.1197 117.443C33.9385 116.962 34.9671 116.947 35.801 117.373C36.8948 117.931 37.7352 119 38.3899 120.012C39.062 121.05 39.6261 122.288 39.652 123.551C39.6719 124.507 39.3467 125.534 38.5588 126.151C37.3805 127.142 36.2022 128.134 35.0239 129.126C38.7307 130.424 42.5136 131.353 46.4088 131.872C46.5258 131.884 46.6833 131.913 46.8794 131.957C47.0754 132.002 47.4417 132.17 47.9732 132.428C48.483 132.676 49.0182 133.054 49.4296 133.434C50.1977 134.145 50.8728 135.096 51.0894 136.138C51.2807 137.058 51.1099 138.086 50.5476 138.853C50.2604 139.245 49.8797 139.552 49.3947 139.733C48.9096 139.915 48.4975 139.991 48.1614 139.964C47.9497 139.948 47.8435 139.94 47.6311 139.922C45.085 139.764 42.5716 139.45 40.0635 138.987C40.3935 142.807 40.9673 146.586 41.7727 150.335C41.812 150.538 41.859 150.796 41.9139 151.109C41.9694 151.422 41.9912 151.922 41.9881 152.611C41.9851 153.301 41.8638 153.813 41.6545 154.137C41.1 154.996 40.0128 155.311 39.039 155.171C37.5192 154.953 36.2293 153.976 35.1077 152.998C34.6788 152.623 34.2697 152.152 33.9415 151.688C33.6012 151.207 33.3303 150.757 33.1421 150.346C32.9538 149.935 32.7951 149.548 32.6642 149.188C32.5333 148.826 32.4518 148.543 32.4163 148.336C32.3909 148.217 32.3782 148.158 32.3529 148.039C31.7659 144.055 31.4171 140.056 31.3188 136.031C30.307 135.632 29.3061 135.215 28.3112 134.777C27.3386 135.595 26.3666 136.414 25.3941 137.232C24.5687 138.003 23.4308 137.774 22.5584 137.375C21.1104 136.711 20.0165 135.217 19.1737 133.872C18.291 132.464 17.5218 130.843 17.4047 129.127C17.3359 128.107 17.6032 126.865 18.5776 126.319Z" fill="black"/>
<path d="M44.5784 155.894C47.5667 151.114 50.555 146.335 53.5439 141.556C54.064 140.792 54.9159 140.228 55.8408 140.155C56.9141 140.071 58.0725 140.537 58.9805 141.101C61.2231 142.456 63.5285 143.673 65.9158 144.758C68.5373 145.943 71.4798 147.182 73.4509 149.339C74.7432 150.754 75.5909 152.637 75.1589 154.572C75.0527 155.048 74.8766 155.488 74.6159 155.873C74.3547 156.258 74.0542 156.564 73.7145 156.788C73.3743 157.013 73.0123 157.208 72.6291 157.37C72.2454 157.534 71.8671 157.643 71.4967 157.7C71.1256 157.757 70.7872 157.794 70.4825 157.814C70.1772 157.833 69.9352 157.838 69.7567 157.829C69.6414 157.821 69.5835 157.817 69.4677 157.808C69.4315 157.937 69.4134 158.002 69.3778 158.131C69.4586 158.168 69.5745 158.228 69.7265 158.31C69.8779 158.392 70.1567 158.566 70.5657 158.825C70.9748 159.085 71.3652 159.353 71.7374 159.629C72.1097 159.904 72.5139 160.267 72.9561 160.695C73.3586 161.085 73.7574 161.554 74.0681 162.017C74.3704 162.469 74.6135 163.073 74.748 163.589C74.8898 164.135 74.9152 164.86 74.8102 165.413C74.631 166.356 74.1332 167.283 73.431 167.963C72.5875 168.779 71.4563 169.214 70.369 169.506C68.7684 169.935 67.0115 169.814 65.3596 169.6C63.0259 169.299 60.7555 168.527 58.5739 167.631C54.8248 166.018 51.2138 164.156 47.7259 162.041C46.4596 161.221 45.2275 160.259 44.547 158.882C44.0897 157.959 43.9756 156.787 44.5784 155.894ZM59.0771 151.303C60.2554 151.906 61.4452 152.48 62.6512 153.027C63.2473 153.302 63.9411 153.508 64.5945 153.391C65.1092 153.299 65.4452 153.029 65.5949 152.609C65.7439 152.19 65.6606 151.755 65.3511 151.321C64.9728 150.791 64.3743 150.431 63.7782 150.173C62.621 149.648 61.4795 149.097 60.3483 148.518C59.9247 149.446 59.5006 150.374 59.0771 151.303ZM55.2568 159.671C57.0143 160.572 58.7971 161.412 60.6119 162.193C61.4083 162.526 62.2832 162.769 63.1357 162.63C63.8144 162.52 64.241 162.173 64.4142 161.677C64.5891 161.176 64.3297 160.465 64.0027 160.091C63.4476 159.459 62.7037 159.042 61.9308 158.676C60.1962 157.93 58.4918 157.127 56.8115 156.266C56.2927 157.402 55.7744 158.536 55.2568 159.671Z" fill="black"/>
<path d="M78.2776 169.726C79.0746 164.047 79.871 158.368 80.668 152.689C80.8098 151.762 81.3262 150.862 82.1275 150.367C83.0301 149.809 84.2458 149.688 85.2992 149.786C90.1295 150.174 94.935 150.014 99.7291 149.307C100.786 149.123 101.985 149.155 102.933 149.675C103.756 150.127 104.346 150.992 104.529 151.895C104.717 152.829 104.474 153.88 103.843 154.611C103.037 155.544 101.849 155.897 100.667 156.131C96.9242 156.687 93.1685 156.943 89.3838 156.899C89.3729 157.589 89.3626 158.278 89.3518 158.968C92.0843 158.999 94.8017 158.884 97.5221 158.62C98.5985 158.489 99.7726 158.598 100.732 159.112C101.483 159.515 102.131 160.249 102.258 161.098C102.389 161.974 101.949 162.885 101.313 163.484C100.465 164.285 99.2483 164.699 98.088 164.797C95.148 165.083 92.2098 165.209 89.2559 165.173C89.2456 165.857 89.2347 166.541 89.2245 167.225C93.6897 167.278 98.1212 166.963 102.533 166.278C103.858 166.097 105.251 165.974 106.512 166.481C107.428 166.85 108.196 167.665 108.396 168.63C108.614 169.679 108.144 170.693 107.449 171.412C106.462 172.43 104.929 172.824 103.509 173.096C96.8518 174.132 90.1476 174.375 83.4325 173.824C82.0026 173.656 80.5359 173.33 79.3986 172.43C78.5895 171.79 78.1503 170.756 78.2776 169.726Z" fill="black"/>
<path d="M108.49 162.258C108.138 160.693 107.786 159.127 107.434 157.562C107.075 155.626 107.217 153.826 107.88 152.015C108.569 150.135 109.859 148.439 111.33 147.032C113.049 145.388 115.057 144.097 117.158 143.053C118.507 142.381 119.935 141.797 121.382 141.388C122.553 141.056 123.808 140.765 125.034 140.771C125.954 140.776 126.936 140.814 127.785 141.118C128.398 141.338 129.069 141.659 129.456 142.24C129.96 142.993 130.027 143.999 129.692 144.832C129.209 146.035 128.112 146.873 127.063 147.583C126.591 147.902 125.985 148.177 125.431 148.315C124.897 148.448 124.407 148.507 123.973 148.483C123.539 148.459 123.111 148.43 122.689 148.399C122.267 148.367 121.805 148.395 121.301 148.481C120.796 148.566 120.287 148.741 119.768 148.997C118.702 149.525 117.677 150.364 117.1 151.391C116.588 152.303 116.481 153.449 116.829 154.45C117.377 155.951 117.925 157.451 118.472 158.951C118.893 160.059 119.718 160.643 120.769 160.919C122.034 161.251 123.538 160.844 124.7 160.232C125.352 159.888 125.922 159.511 126.482 159.032C126.911 158.666 127.335 158.186 127.655 157.709C127.943 157.281 128.229 156.851 128.501 156.422C128.798 155.954 129.182 155.494 129.56 155.094C130.018 154.609 130.563 154.186 131.109 153.824C132.21 153.095 133.524 152.312 134.901 152.197C135.792 152.122 136.758 152.448 137.245 153.245C137.657 153.92 137.598 154.699 137.486 155.428C137.313 156.556 136.735 157.657 136.159 158.645C135.302 160.113 134.052 161.39 132.785 162.51C131.148 163.957 129.264 165.185 127.305 166.161C125.116 167.251 122.745 168.066 120.328 168.403C118.421 168.669 116.375 168.7 114.511 168.163C113.027 167.734 111.579 167.047 110.502 165.932C109.484 164.882 108.879 163.696 108.49 162.258Z" fill="black"/>
<path d="M131.747 141.434C130.801 141.478 129.884 140.948 129.369 140.179C128.836 139.382 128.669 138.323 128.93 137.399C129.248 136.272 130.071 135.331 130.917 134.526C135.58 130.314 139.561 125.515 142.919 120.218C143.613 119.176 144.382 118.124 145.53 117.559C146.36 117.151 147.418 117.123 148.213 117.61C149.058 118.127 149.521 119.157 149.551 120.13C149.596 121.556 148.97 122.863 148.263 124.075C147.312 125.578 146.321 127.048 145.282 128.492C148.743 131.405 152.204 134.318 155.665 137.231C156.505 137.933 156.69 139.124 156.49 140.14C156.174 141.739 155.247 143.203 154.225 144.417C153.253 145.571 152 146.837 150.53 147.226C149.546 147.486 148.565 147.443 147.788 146.601C144.745 143.19 141.703 139.778 138.66 136.367C137.488 137.563 136.282 138.72 135.037 139.842C134.107 140.609 132.978 141.376 131.747 141.434Z" fill="black"/>
<path d="M47.2319 67.7982C47.2319 67.7982 45.4623 71.367 45.4086 73.3542C45.3549 75.3414 44.9676 78.9984 45.4641 81.3126C45.9607 83.6268 47.3984 89.4078 52.747 92.1486C58.0955 94.8894 59.1423 97.53 64.7219 93.822C70.3015 90.114 75.8335 85.7442 74.4833 81.6678C73.133 77.5914 70.8584 75.3888 67.3645 73.2414C63.8706 71.094 56.166 74.2002 67.0502 66.9654C77.9343 59.7306 78.6734 44.193 87.6238 55.9356C96.5743 67.6782 113.904 53.2002 106.225 68.9442C98.5448 84.6882 108.676 88.3428 95.691 92.9442C82.7061 97.5456 85.9894 112.865 77.2127 106.108C68.436 99.3492 51.2809 100.404 61.9623 113.64C72.6437 126.876 69.7591 139.601 88.3279 134.94C106.897 130.279 117.616 128.423 108.121 120.694C98.6256 112.966 102.751 115.953 93.7254 116.6C84.6995 117.248 74.7909 116.09 84.7834 112.156C94.7758 108.221 103.549 117.848 110.168 104.76C116.787 91.6722 125.309 87.99 119.401 79.1994C113.493 70.4088 124.79 67.4748 120.847 62.1C116.904 56.7252 121.571 52.56 109.746 45.72C101.502 40.9518 101.753 52.5864 93.7573 41.28C85.7614 29.9736 80.764 24.1866 64.2543 35.16C47.7447 46.1334 40.9464 50.5698 45.4502 57.2718C49.9541 63.9738 47.2319 67.7982 47.2319 67.7982Z" fill="black"/>
<path d="M117.348 123.54C115.116 129.9 112.823 136.8 117.348 137.16C121.873 137.52 125.976 135.66 126.64 132.12C127.303 128.58 125.735 129.6 124.106 123.54C122.477 117.48 117.348 123.54 117.348 123.54Z" fill="black"/>
</svg>
